<svg xmlns="http://www.w3.org/2000/svg" xmlns:xlink="http://www.w3.org/1999/xlink" version="1.1" id="Layer_1" x="0px" y="0px" viewBox="0 0 40 40" style="enable-background:new 0 0 40 40;" xml:space="preserve">
<style type="text/css">
	.st0{fill:none;stroke:#2C2A29;stroke-linecap:round;stroke-linejoin:round;stroke-miterlimit:10;}
</style>
	<path class="st0" d="M16.3,19.8C5,19,11.3,6.9,18,16.7c0,0.1,0.1,0.1,0.2,0v0c0.1,0,0.1-0.1,0.1-0.2c-5.1-10.7,8.5-10.1,3.6,0.1  c0,0,0,0.1,0,0.1l0,0c0,0,0.1,0,0.1,0c6.6-9.9,13,2.2,1.8,3.1c-0.1,0-0.1,0-0.1,0.1l0,0c0,0.1,0,0.1,0.1,0.1  c11.8,1,4.5,12.3-1.8,3.2c0-0.1-0.2-0.1-0.2,0l0,0c0,0,0,0,0,0.1c5,10.2-8.7,10.8-3.5,0c0,0,0-0.1,0-0.1l0,0c-0.1-0.1-0.2-0.1-0.2,0  c-6.2,9.2-13.6-2.1-1.8-3.2c0.1,0,0.1-0.1,0.1-0.1l0,0C16.3,19.9,16.3,19.8,16.3,19.8z"/>
</svg>
