<?xml version="1.0" encoding="utf-8"?>
<svg version="1.2" baseProfile="tiny" id="Layer_1" xmlns="http://www.w3.org/2000/svg" xmlns:xlink="http://www.w3.org/1999/xlink"
     x="0px" y="0px" viewBox="0 0 40 40" overflow="visible" xml:space="preserve">
<g>
	<path fill="#2C2A29" d="M31,15.3c0-1.3-1-2.3-2.3-2.3H12.3C11,13,10,14,10,15.3v11.4c0,1.3,1,2.3,2.3,2.3h16.4c1.3,0,2.3-1,2.3-2.3
		V15.3z M12.3,14h16.4c0.7,0,1.3,0.6,1.3,1.3v7.9l-3.5-3.9c-0.5-0.6-1.3-0.9-2-0.9c0,0,0,0,0,0c-0.8,0-1.5,0.3-2,0.9l-3.3,3.6
		l-0.8-0.7c-1.1-0.9-2.7-0.9-3.7,0.1L11,25.7V15.3C11,14.6,11.6,14,12.3,14z M28.7,28H12.3c-0.6,0-1.1-0.4-1.2-1l4.3-4
		c0.6-0.6,1.7-0.6,2.4-0.1l1.2,1c0.2,0.2,0.5,0.2,0.7,0l3.6-4c0.3-0.4,0.8-0.6,1.3-0.6c0,0,0,0,0,0c0.5,0,1,0.2,1.3,0.6l4.2,4.7v2
		C30,27.4,29.4,28,28.7,28z"/>
    <path fill="#2C2A29" d="M15,20c1.1,0,2-0.9,2-2s-0.9-2-2-2s-2,0.9-2,2S13.9,20,15,20z M15,17c0.6,0,1,0.4,1,1s-0.4,1-1,1
		s-1-0.4-1-1S14.4,17,15,17z"/>
</g>
</svg>
