<svg width="21" height="21" viewBox="0 0 21 20" fill="none" xmlns="http://www.w3.org/2000/svg">
    <path fill-rule="evenodd" clip-rule="evenodd" d="M20.8947 8.26699L19.7468 9.77536L10.793 3.07379L1.94023 9.85112L0.728027 8.33816L10.7884 0.192505L14.8084 3.40669L14.9439 1.06722L18.1076 1.1889L18.0318 5.98262L20.8947 8.26699ZM3.69426 10.0463L10.8642 4.612L18.1581 9.94525L17.9698 17.4182L19.9925 17.3746L19.8914 19.8174H2.00452V17.7511L3.82283 17.7121L3.69426 10.0463ZM5.76052 14.3693L10.6644 14.2546V11.7819L5.66409 11.7429L5.76052 14.3693ZM16.0482 11.8164L12.6848 11.7819L12.8294 17.5215L15.9013 17.4573L16.0482 11.8164Z" fill="#2C2A29" fill-opacity="0.5"/>
</svg>
