<svg width="25" height="19" viewBox="0 0 25 19" fill="none" xmlns="http://www.w3.org/2000/svg">
<path fill-rule="evenodd" clip-rule="evenodd" d="M24.7055 13.1079L0.349036 13.1804C0.349036 12.3686 0.349036 11.6559 0.332123 11.2161C0.286218 9.22286 1.25507 8.50046 3.01156 8.50046C8.88988 8.50046 17.3752 8.54395 22.8983 8.54395C23.9397 8.54395 24.766 9.43789 24.7442 11.0687C24.737 11.5133 24.7225 12.255 24.7055 13.1079ZM20.6707 7.09671C20.3252 5.93458 20.6006 3.95581 20.8495 3.24548L20.5813 3.11259C20.0981 3.79876 14.8649 3.87124 13.867 3.28172L13.6737 3.39528C14.0796 4.05245 14.2439 6.04088 13.9395 7.15711L11.6587 7.17644C11.3688 6.00706 11.4654 4.21433 11.8303 3.55232L11.5669 3.20199C11.0837 3.71178 5.57985 3.87849 4.69557 3.29622L4.43946 3.53782C4.87677 4.22641 4.92268 5.9974 4.73181 7.23443L2.49693 7.25617C2.49693 7.25617 2.27948 5.05271 2.23841 3.37595C2.19251 1.38026 3.17827 0.909128 4.91785 0.660272C9.26679 0.0393392 16.6093 0.00551365 20.9727 0.865639C21.9947 1.06617 22.8403 1.75717 22.8186 3.39044C22.8041 5.09378 22.6809 7.06772 22.6809 7.06772L20.6707 7.09671ZM24.679 14.3981C24.6355 16.4349 24.5896 18.5296 24.5896 18.5296H23.268L22.4103 15.9976L2.90283 15.9831L1.76728 18.5465H0.317627C0.317627 18.5465 0.336956 16.2609 0.341788 14.1637L24.679 14.3981Z" fill="#2C2A29" fill-opacity="0.5"/>
</svg>
