<svg width="31" height="31" viewBox="0 0 31 31" fill="none" xmlns="http://www.w3.org/2000/svg">
    <g clip-path="url(#clip0_75_11)">
        <path d="M15.0381 0.461914C23.3433 0.46198 30.0762 7.1948 30.0762 15.5C30.0761 23.8051 23.3432 30.538 15.0381 30.5381C6.73289 30.5381 6.59757e-05 23.8052 0 15.5C0 7.19476 6.73285 0.461914 15.0381 0.461914ZM15.0381 1.94141C7.55018 1.94141 1.47949 8.01209 1.47949 15.5C1.47953 22.9879 7.5502 29.0576 15.0381 29.0576C22.5259 29.0576 28.5957 22.9879 28.5957 15.5C28.5957 8.01212 22.526 1.94144 15.0381 1.94141Z" fill="#2C2A29"/>
        <path d="M15.773 6.75144C16.124 6.90609 16.5106 7.2927 16.6712 7.64958C16.8496 8.03024 16.8496 8.70831 16.6712 9.08897C16.5106 9.44585 16.124 9.83247 15.7671 9.99306C15.3864 10.1715 14.7084 10.1715 14.3277 9.99306C13.5604 9.64213 13.1262 8.76779 13.3225 7.95887C13.5783 6.88824 14.7619 6.30535 15.773 6.75144ZM15.773 12.1046C16.118 12.2533 16.5106 12.6458 16.6771 13.0027C16.802 13.2763 16.802 13.2882 16.802 18.1833C16.802 23.0785 16.802 23.0904 16.6771 23.364C16.5106 23.7209 16.124 24.1075 15.7671 24.2681C15.5649 24.3632 15.3745 24.3989 15.0474 24.3989C14.7203 24.3989 14.5299 24.3632 14.3277 24.2681C13.9708 24.1075 13.5842 23.7209 13.4177 23.364C13.2928 23.0904 13.2928 23.0547 13.2749 18.3618C13.263 15.0488 13.2749 13.544 13.3225 13.3239C13.5545 12.2533 14.756 11.6525 15.773 12.1046Z" fill="#2C2A29"/>
    </g>
    <defs>
        <clipPath id="clip0_75_11">
            <rect width="30.0759" height="30.0759" fill="white" transform="translate(0 0.461914)"/>
        </clipPath>
    </defs>
</svg>
