<svg width="25" height="25" viewBox="0 0 25 22" fill="none" xmlns="http://www.w3.org/2000/svg">
    <path fill-rule="evenodd" clip-rule="evenodd" d="M22.9499 18.4903L15.7813 21.4423L9.48572 16.7187L0.105103 18.7873L1.68987 1.66719L9.57277 0.192505L16.7542 4.91353L24.5321 2.25859L22.9499 18.4903ZM21.6211 7.24077L21.1449 9.51935L19.7522 9.72417L18.7102 11.78L17.8013 10.4999L17.0588 10.4538L16.7593 10.249L16.6902 11.2168L15.8555 11.5829L15.0286 10.4052L14.5882 10.6612L15.3947 12.0975L16.388 12.3945L15.3358 13.5619L15.0286 15.4334L12.9958 15.9199L12.092 14.6398L11.836 12.3356L10.2538 11.524L9.50108 9.94179L9.66749 8.94075L11.2036 8.11892L12.8601 9.21981L14.6522 9.02779L14.6317 8.02419L13.4924 7.42766L13.3388 8.30581L12.453 8.19573L12.197 7.1486L11.1729 7.32525L10.5252 5.78913L11.1038 5.14395L11.7285 5.73536L12.5247 5.77633L13.6409 4.47062L9.16313 1.57246L7.70893 1.86176L7.90863 2.17155L8.11344 3.52334L7.8267 3.68975L5.9347 2.21251L5.26137 2.34564L5.04375 4.0789L6.05503 4.84697L6.26753 3.44653L7.70637 4.72664L7.52716 5.71232L6.33666 6.52903L6.30337 8.12916L5.40986 7.57359L4.15024 7.42766L4.2296 8.22645L5.29977 8.59768L4.30129 9.30174L3.04167 8.55927L2.50658 7.09996L1.63611 17.1693L3.92238 16.6009L4.98999 12.7759L4.38578 12.0975L4.09903 10.7406L5.18712 9.18909L8.04176 10.7841L7.91631 11.3345L9.35003 12.438L8.3413 13.8538L7.96239 14.3402H7.17897L5.46107 16.2271L9.57532 15.203L15.876 19.8498L21.8106 17.3946L22.8014 6.64168L21.6211 7.24077ZM19.8827 16.4575L19.1787 15.9685L17.6861 17.1385L17.2892 15.5231L18.7537 13.2803L18.9611 13.8205L19.555 13.7335L19.7675 12.799L20.9145 13.992L20.8531 15.6818L19.8827 16.4575Z" fill="#2C2A29" fill-opacity="0.5"/>
</svg>
