<svg width="22" height="22" viewBox="0 0 22 22" fill="none" xmlns="http://www.w3.org/2000/svg">
<path d="M1.07542 21.5597C1.21122 21.4856 2.63918 20.3622 3.44987 19.6914C4.48278 18.8395 5.53214 17.856 7.50742 15.8931L9.5362 13.8767L11.6267 15.9672C13.6802 18.0165 13.7213 18.0577 13.9024 18.0782C14.1534 18.107 14.2728 18.0371 14.6596 17.6256C15.2069 17.0495 15.425 16.5186 15.425 15.7861C15.4209 15.1071 15.1904 14.5598 14.6678 13.996L14.4374 13.745L16.3098 11.3829C17.3386 10.0825 18.2027 8.99196 18.2315 8.96315C18.2768 8.91788 18.3262 8.93023 18.5196 9.03722C19.0752 9.35409 19.713 9.36232 20.3056 9.06192C20.5525 8.93435 21.0257 8.50225 21.0957 8.33765C21.1245 8.26769 21.1369 8.14012 21.1245 8.04135C21.1039 7.87675 20.9311 7.6998 17.5073 4.27186C15.2933 2.05379 13.8612 0.650517 13.7748 0.61348C13.5238 0.506486 13.3633 0.568213 13.0341 0.909772C12.6966 1.25956 12.5115 1.60523 12.4497 2.02087C12.3839 2.44473 12.5032 2.9797 12.7378 3.31303L12.8201 3.42414L10.3922 5.34592L7.96421 7.2677L7.68849 7.02079C7.1494 6.52286 6.68439 6.32121 6.01362 6.29241C5.29758 6.25949 4.76261 6.44878 4.18237 6.94672C3.69678 7.36647 3.55686 7.5928 3.62271 7.87263C3.64328 7.95082 4.35932 8.69566 5.86135 10.1977L8.06708 12.4117L5.9272 14.5598C3.91077 16.5844 3.01366 17.5433 2.14125 18.605C1.58158 19.2799 0.474604 20.6873 0.388184 20.8272C0.231808 21.0864 0.347033 21.4568 0.622749 21.572C0.803816 21.6461 0.919041 21.642 1.07542 21.5597Z" fill="#2C2A29" fill-opacity="0.5"/>
</svg>
