<svg width="19" height="21" viewBox="0 0 19 21" fill="none" xmlns="http://www.w3.org/2000/svg">
<path fill-rule="evenodd" clip-rule="evenodd" d="M16.7637 0.913888C15.674 1.15775 14.3116 2.05173 13.0305 3.36349C12.4844 3.92272 11.6579 4.96051 10.8841 6.05878C10.8042 6.17216 10.708 6.26476 10.6703 6.26458C10.5931 6.26424 7.04177 5.55484 5.54632 5.24103C4.67558 5.05831 4.50895 5.03601 4.00584 5.03497C3.37606 5.03366 3.06016 5.09793 2.61797 5.31722C1.80303 5.72141 1.21422 6.52667 0.970869 7.56983C0.917972 7.79651 0.91923 7.82389 0.983627 7.84923C1.0229 7.86463 2.59771 8.40542 4.48317 9.05095C6.36864 9.69644 7.92635 10.2381 7.94475 10.2547C7.97326 10.2803 6.10411 13.1354 5.96425 13.2799C5.9268 13.3186 5.79159 13.3169 5.39445 13.2729C4.38723 13.1612 3.4468 13.1145 3.15423 13.1616C2.53288 13.2617 1.97986 13.7047 1.64521 14.3705C1.44707 14.7648 1.27424 15.2948 1.33212 15.3306C1.35434 15.3443 2.311 15.6191 3.45808 15.9412L5.54363 16.5269L6.74916 18.5321C7.78988 20.2631 7.96653 20.5341 8.04148 20.5144C8.08921 20.5019 8.26777 20.4245 8.43831 20.3424C9.43906 19.8609 9.83508 18.8961 9.54143 17.6551C9.41199 17.108 9.18564 16.3962 8.95657 15.8155L8.76147 15.3212L8.98729 15.0738C9.11148 14.9377 9.73124 14.2718 10.3644 13.5939C13.2964 10.4552 15.1244 8.42972 16.0782 7.26289C17.0509 6.07297 17.8029 4.49691 18.0629 3.10341C18.1532 2.61933 18.1508 1.93861 18.0577 1.60667C17.9677 1.28584 17.7165 1.00358 17.458 0.932546C17.2868 0.88551 16.9328 0.876007 16.7637 0.913888ZM13.4905 12.3359L11.9735 14.1546L13.5149 16.5774C14.3627 17.91 15.0736 19.0181 15.0948 19.0399C15.1456 19.0922 15.5165 18.8439 15.9428 18.4722C16.5812 17.9154 17.0896 17.1438 17.2389 16.5052C17.3349 16.0944 17.3254 15.4669 17.2174 15.0769C17.1642 14.885 16.7719 14.0259 16.237 12.9299C15.7465 11.9251 15.2836 10.972 15.2082 10.8119C15.1329 10.6517 15.0569 10.5199 15.0394 10.519C15.0219 10.518 14.3249 11.3356 13.4905 12.3359Z" fill="#2C2A29" fill-opacity="0.5"/>
</svg>
