<svg width="31" height="31" viewBox="0 0 31 31" fill="none" xmlns="http://www.w3.org/2000/svg">
    <g clip-path="url(#clip0_75_3)">
        <path d="M15.0381 0.462158C23.3433 0.462224 30.0762 7.19505 30.0762 15.5002C30.0761 23.8054 23.3432 30.5383 15.0381 30.5383C6.73289 30.5383 6.59757e-05 23.8054 0 15.5002C0 7.19501 6.73285 0.462158 15.0381 0.462158ZM15.0381 1.94263C7.55018 1.94263 1.48047 8.01234 1.48047 15.5002C1.48049 22.9881 7.55019 29.0579 15.0381 29.0579C22.526 29.0578 28.5957 22.9881 28.5957 15.5002C28.5957 8.01235 22.526 1.94265 15.0381 1.94263Z" fill="#2C2A29"/>
        <path d="M16.3085 7.41847C16.1795 7.14212 15.8756 6.83813 15.6084 6.72299C14.8208 6.37295 13.8905 6.83813 13.7108 7.66718C13.674 7.83759 13.6648 17.1547 13.674 19.7201L13.674 19.732C13.6878 23.3542 13.6879 23.382 13.7845 23.5936C13.9135 23.87 14.2129 24.1693 14.4892 24.2937C14.6458 24.3674 14.7932 24.395 15.0465 24.395C15.2998 24.395 15.4472 24.3674 15.6038 24.2937C15.8802 24.1693 16.1795 23.87 16.3085 23.5936C16.4052 23.3817 16.4052 23.3725 16.4052 19.5819C16.4052 15.7914 16.4052 7.63033 16.3085 7.41847Z" fill="#2C2A29"/>
        <path d="M6.95619 14.2296C6.67984 14.3585 6.37585 14.6625 6.26071 14.9297C5.91067 15.7173 6.37585 16.6476 7.2049 16.8273C7.37531 16.8641 16.6924 16.8733 19.2578 16.8641L19.2697 16.8641C22.8919 16.8503 22.9197 16.8502 23.1313 16.7536C23.4077 16.6246 23.7071 16.3252 23.8314 16.0489C23.9051 15.8923 23.9327 15.7449 23.9327 15.4916C23.9327 15.2383 23.9051 15.0909 23.8314 14.9343C23.7071 14.6579 23.4077 14.3585 23.1313 14.2296C22.9195 14.1329 22.9102 14.1329 19.1197 14.1329C15.3291 14.1329 7.16805 14.1329 6.95619 14.2296Z" fill="#2C2A29"/>
    </g>
    <defs>
        <clipPath id="clip0_75_3">
            <rect width="30.0759" height="30.0759" fill="white" transform="translate(0 0.462158)"/>
        </clipPath>
    </defs>
</svg>

