<svg width="106" height="49" viewBox="0 0 106 49" fill="none" xmlns="http://www.w3.org/2000/svg">
    <rect x="22.9712" y="32.5819" width="13.8296" height="3.28161" fill="#F5EEE8"/>
    <rect y="32.5819" width="13.5952" height="3.28161" fill="#F5EEE8"/>
    <rect x="46.1769" y="32.5819" width="13.5952" height="3.28161" fill="#F5EEE8"/>
    <rect x="69.1481" y="32.5819" width="13.8296" height="3.28161" fill="#F5EEE8"/>
    <rect x="92.3537" y="32.5819" width="13.5952" height="3.28161" fill="#F5EEE8"/>
    <rect x="0.1172" y="32.6991" width="105.715" height="3.04721" stroke="#F5EEE8" stroke-width="0.2344"/>
    <path d="M53.8251 49.0001V43.364H54.6755V48.2681H57.2293V49.0001H53.8251Z" fill="#F5EEE8"/>
    <path d="M43.9295 49.0001V43.364H47.463V44.096H44.7798V45.8133H47.2786V46.5426H44.7798V48.2681H47.496V49.0001H43.9295Z" fill="#F5EEE8"/>
    <path d="M33.4811 43.364L35.0498 47.9543H35.1131L36.6817 43.364H37.6009L35.5726 49.0001H34.5902L32.562 43.364H33.4811Z" fill="#F5EEE8"/>
    <path d="M22.0967 49.0001H21.194L23.2222 43.364H24.2047L26.2329 49.0001H25.3302L23.7368 44.3877H23.6928L22.0967 49.0001ZM22.248 46.793H25.1761V47.5085H22.248V46.793Z" fill="#F5EEE8"/>
    <path d="M10.6904 49.0001V43.364H12.6994C13.136 43.364 13.4983 43.4392 13.7864 43.5897C14.0763 43.7401 14.2928 43.9483 14.4359 44.2144C14.579 44.4786 14.6505 44.784 14.6505 45.1308C14.6505 45.4757 14.578 45.7793 14.4331 46.0417C14.29 46.3022 14.0735 46.5049 13.7836 46.6499C13.4956 46.7948 13.1332 46.8673 12.6966 46.8673H11.1747V46.1353H12.6195C12.8947 46.1353 13.1186 46.0958 13.291 46.0169C13.4653 45.938 13.5928 45.8234 13.6736 45.6729C13.7543 45.5225 13.7946 45.3418 13.7946 45.1308C13.7946 44.918 13.7534 44.7336 13.6708 44.5776C13.5901 44.4217 13.4626 44.3024 13.2883 44.2199C13.1158 44.1355 12.8892 44.0933 12.6085 44.0933H11.5408V49.0001H10.6904ZM13.4727 46.4572L14.8652 49.0001H13.8965L12.5315 46.4572H13.4727Z" fill="#F5EEE8"/>
    <path d="M0 44.096V43.364H4.3619V44.096H2.60338V49.0001H1.75577V44.096H0Z" fill="#F5EEE8"/>
    <path d="M102.057 48.835V43.3641H104.06C104.449 43.3641 104.77 43.4282 105.025 43.5564C105.279 43.6828 105.47 43.8547 105.596 44.072C105.723 44.2875 105.786 44.5306 105.786 44.8013C105.786 45.0292 105.744 45.2215 105.661 45.3783C105.577 45.5332 105.465 45.6579 105.324 45.7523C105.185 45.8449 105.032 45.9125 104.865 45.9553V46.0087C105.046 46.0176 105.223 46.0764 105.396 46.185C105.571 46.2919 105.715 46.4441 105.829 46.6418C105.943 46.8395 106 47.0799 106 47.3631C106 47.6427 105.934 47.8938 105.802 48.1164C105.672 48.3372 105.471 48.5127 105.198 48.6427C104.926 48.7709 104.578 48.835 104.154 48.835H102.057ZM102.882 48.1271H104.074C104.469 48.1271 104.752 48.0505 104.923 47.8974C105.094 47.7442 105.18 47.5528 105.18 47.323C105.18 47.1503 105.136 46.9918 105.049 46.8475C104.962 46.7033 104.837 46.5884 104.675 46.5029C104.515 46.4174 104.324 46.3747 104.103 46.3747H102.882V48.1271ZM102.882 45.7309H103.988C104.174 45.7309 104.34 45.6953 104.488 45.624C104.637 45.5528 104.756 45.4531 104.843 45.3248C104.932 45.1948 104.977 45.0417 104.977 44.8654C104.977 44.6392 104.897 44.4495 104.739 44.2964C104.58 44.1432 104.337 44.0666 104.01 44.0666H102.882V45.7309Z" fill="#F5EEE8"/>
    <path d="M94.7927 43.3641H95.6208V46.9624C95.6208 47.3453 95.5309 47.6845 95.351 47.9802C95.1711 48.274 94.9182 48.5055 94.5923 48.6747C94.2664 48.8421 93.8844 48.9258 93.4463 48.9258C93.01 48.9258 92.6289 48.8421 92.303 48.6747C91.9771 48.5055 91.7242 48.274 91.5443 47.9802C91.3644 47.6845 91.2745 47.3453 91.2745 46.9624V43.3641H92.1V46.8956C92.1 47.1431 92.1543 47.3631 92.2629 47.5554C92.3733 47.7478 92.5291 47.8991 92.7304 48.0096C92.9316 48.1182 93.1703 48.1725 93.4463 48.1725C93.7241 48.1725 93.9637 48.1182 94.1649 48.0096C94.3679 47.8991 94.5229 47.7478 94.6297 47.5554C94.7384 47.3631 94.7927 47.1431 94.7927 46.8956V43.3641Z" fill="#F5EEE8"/>
    <path d="M81.6641 48.835V43.3641H82.4895V48.1244H84.9686V48.835H81.6641Z" fill="#F5EEE8"/>
    <path d="M75.2746 45.218H74.4412C74.4091 45.0399 74.3494 44.8832 74.2622 44.7478C74.1749 44.6125 74.0681 44.4976 73.9416 44.4032C73.8152 44.3088 73.6736 44.2376 73.5169 44.1895C73.3619 44.1414 73.1972 44.1174 73.0227 44.1174C72.7074 44.1174 72.4252 44.1966 72.1758 44.3551C71.9283 44.5136 71.7324 44.746 71.5882 45.0524C71.4457 45.3587 71.3744 45.7327 71.3744 46.1743C71.3744 46.6196 71.4457 46.9953 71.5882 47.3016C71.7324 47.608 71.9292 47.8395 72.1785 47.9962C72.4278 48.1529 72.7083 48.2313 73.02 48.2313C73.1927 48.2313 73.3566 48.2081 73.5115 48.1618C73.6682 48.1137 73.8098 48.0434 73.9363 47.9508C74.0627 47.8582 74.1696 47.7451 74.2568 47.6115C74.3459 47.4762 74.4073 47.3212 74.4412 47.1467L75.2746 47.1494C75.2301 47.4183 75.1437 47.6658 75.0155 47.892C74.8891 48.1164 74.7261 48.3105 74.5266 48.4744C74.329 48.6364 74.1028 48.762 73.8481 48.851C73.5934 48.9401 73.3156 48.9846 73.0147 48.9846C72.5409 48.9846 72.1189 48.8724 71.7484 48.648C71.378 48.4218 71.0859 48.0986 70.8722 47.6783C70.6603 47.258 70.5543 46.7567 70.5543 46.1743C70.5543 45.5902 70.6612 45.0889 70.8749 44.6704C71.0886 44.2501 71.3807 43.9277 71.7511 43.7033C72.1215 43.4772 72.5427 43.3641 73.0147 43.3641C73.3049 43.3641 73.5756 43.4059 73.8267 43.4896C74.0796 43.5715 74.3067 43.6926 74.5079 43.8529C74.7092 44.0114 74.8757 44.2055 75.0075 44.4353C75.1393 44.6632 75.2283 44.9241 75.2746 45.218Z" fill="#F5EEE8"/>
    <path d="M91.8808 25.0759V0.456654H105.668V2.28552L95.3275 0.984209V12.5201L104.296 11.6408V13.5401L95.3275 12.9773V24.5484L105.949 23.2471V25.0759H91.8808Z" fill="#F5EEE8"/>
    <path d="M80.8456 -0.000244141C83.0965 -0.000244141 85.664 0.562484 87.0004 1.33623V4.50157C85.9102 2.81339 83.8703 0.527314 80.8456 0.527314C77.7858 0.527314 76.1328 2.81339 76.1328 5.52151C76.1328 8.40549 77.5396 9.8123 81.1622 11.1488C84.9957 12.5204 88.0556 14.4548 88.0556 18.3587C88.0556 22.7198 84.6792 25.5335 79.0168 25.5335C76.6955 25.5335 74.0226 24.9708 72.6861 24.197V21.0317C73.8467 22.755 75.8514 25.0059 79.0168 25.0059C82.8152 25.0059 84.644 22.5792 84.644 19.66C84.644 16.4947 82.5338 15.0175 78.6299 13.5052C75.2535 12.1687 72.7213 10.0937 72.7213 6.50629C72.7213 2.77822 75.6052 -0.000244141 80.8456 -0.000244141Z" fill="#F5EEE8"/>
    <path d="M62.9172 -0.000244141C65.1681 -0.000244141 67.7355 0.562484 69.072 1.33623V4.50157C67.9817 2.81339 65.9419 0.527314 62.9172 0.527314C59.8574 0.527314 58.2044 2.81339 58.2044 5.52151C58.2044 8.40549 59.6112 9.8123 63.2337 11.1488C67.0673 12.5204 70.1271 14.4548 70.1271 18.3587C70.1271 22.7198 66.7508 25.5335 61.0883 25.5335C58.7671 25.5335 56.0941 24.9708 54.7577 24.197V21.0317C55.9183 22.755 57.923 25.0059 61.0883 25.0059C64.8867 25.0059 66.7156 22.5792 66.7156 19.66C66.7156 16.4947 64.6054 15.0175 60.7015 13.5052C57.3251 12.1687 54.7928 10.0937 54.7928 6.50629C54.7928 2.77822 57.6768 -0.000244141 62.9172 -0.000244141Z" fill="#F5EEE8"/>
    <path d="M42.2484 25.0759V14.3138L33.9482 0.456654H37.817L45.4138 13.7159L51.9555 0.456654H53.7492L45.6951 14.3138V25.0759H42.2484Z" fill="#F5EEE8"/>
    <path d="M26.7041 0.457109V24.5488L37.009 23.2475V25.0764H23.2574V0.457109H26.7041Z" fill="#F5EEE8"/>
    <path d="M18.0424 0.456654V16.0723C18.0424 22.0161 15.1233 25.498 9.9884 25.498C3.83358 25.498 0 22.2975 0 16.3185V0.456654H3.4467V16.1075C3.4467 21.5941 5.80312 25.0056 10.0587 25.0056C14.6661 25.0056 16.8466 21.172 16.7059 16.1075L16.2839 0.456654H18.0424Z" fill="#F5EEE8"/>
</svg>
