<svg width="58" height="58" viewBox="0 0 58 58" fill="none" xmlns="http://www.w3.org/2000/svg">
    <g clip-path="url(#clip0_38_675)">
        <path fill-rule="evenodd" clip-rule="evenodd" d="M15.9654 17.5719L14.7836 17.5813V18.4647V19.3481H24.2066H33.6296L33.6092 19.2547C33.5981 19.2033 33.5603 18.9929 33.5252 18.7872C33.4901 18.5816 33.4269 18.2182 33.3846 17.9798L33.3078 17.5464L25.2275 17.5544C20.7833 17.5589 16.6154 17.5667 15.9654 17.5719ZM27.3326 20.8667C26.9492 20.8707 23.9573 20.8913 20.684 20.9125C17.4107 20.9337 14.7223 20.9614 14.7097 20.974C14.6971 20.9866 14.5931 21.3947 14.4785 21.8808C13.5404 25.8622 13.3149 26.8098 13.3002 26.8337C13.2908 26.8488 12.9512 26.8614 12.5455 26.8617C11.7511 26.8622 11.5375 26.8913 11.2798 27.0338C11.1111 27.127 10.9302 27.3457 10.8663 27.5334C10.833 27.6312 10.8208 28.3815 10.8127 30.8216C10.8023 33.956 10.8029 33.9852 10.8738 34.2067C10.9633 34.4863 11.1429 34.7277 11.3837 34.8922C11.708 35.1137 11.7691 35.1221 13.0468 35.1218L14.1884 35.1215L14.3271 34.8583C14.4034 34.7135 14.8607 33.8562 15.3434 32.953L16.2211 31.3109L18.5376 31.3325C21.638 31.3615 22.0991 31.3812 22.4524 31.5001C22.8699 31.6406 23.1066 31.7827 23.4157 32.0781C23.7636 32.4106 23.9556 32.7006 24.4067 33.5753C24.8921 34.5164 25.2471 35.1745 25.8141 36.1842L26.0573 36.6173L29.5122 36.6176C31.4124 36.6177 33.2412 36.6079 33.5762 36.5957L34.1853 36.5735L34.712 35.7713C36.8688 32.486 36.9921 32.3116 37.3991 31.9715C37.6507 31.7612 38.0682 31.5439 38.3683 31.4669C38.7267 31.3749 39.2678 31.3601 41.6867 31.3756L44.0529 31.3907L44.2783 31.8371C44.4023 32.0826 44.7323 32.7271 45.0117 33.2693L45.5195 34.2552L46.337 34.2643L47.1544 34.2734L47.1744 34.0943C47.1854 33.9958 47.2476 33.158 47.3126 32.2325C47.5075 29.4586 47.6677 27.1598 47.6774 26.9971L47.6866 26.8442L47.4485 26.8023C47.3176 26.7793 46.7437 26.6906 46.1732 26.6052C45.6027 26.5197 44.6845 26.3814 44.1327 26.2979C43.5809 26.2144 42.678 26.0777 42.1262 25.9941C40.0735 25.6833 38.8955 25.5052 38.3003 25.4157C37.9636 25.3651 37.6865 25.3216 37.6845 25.319C37.6777 25.3102 36.5013 23.6819 36.2813 23.3766C35.3073 22.0253 34.9251 21.6114 34.3701 21.307C33.961 21.0826 33.5461 20.9675 32.876 20.8923C32.4775 20.8476 30.1905 20.8371 27.3326 20.8667ZM24.1201 23.4191C24.0842 23.7872 23.8978 26.4179 23.8978 26.5571V26.6498L23.2771 26.6707C22.5326 26.6957 16.1373 26.798 16.1244 26.785C16.1195 26.78 16.1851 26.4395 16.2704 26.0282C16.3556 25.6169 16.5189 24.8291 16.6332 24.2775L16.8411 23.2746L19.5957 23.2573C21.1108 23.2478 22.7529 23.2364 23.2448 23.2318L24.1392 23.2236L24.1201 23.4191ZM32.8283 23.3124C32.9424 23.3514 33.1031 23.4298 33.1854 23.4866C33.3562 23.6045 33.7263 23.9755 33.9236 24.2265C34.0745 24.4186 34.6943 25.3354 34.7651 25.4713C34.8103 25.558 34.7866 25.5936 33.8012 26.9201L32.791 28.2801L32.2128 28.3007C31.5818 28.3231 26.2674 28.3893 26.2517 28.3749C26.2368 28.3612 26.3819 23.3143 26.3986 23.2646C26.4106 23.229 27.0008 23.2226 29.5172 23.2311C32.5603 23.2413 32.625 23.2429 32.8283 23.3124ZM19.2727 32.2519C19.2259 32.26 19.0729 32.2836 18.9326 32.3044C17.5166 32.5137 16.2846 33.6147 15.8377 35.0704C15.4223 36.4237 15.6403 37.8811 16.4142 38.9245C17.2314 40.0262 18.4829 40.5951 20.0889 40.5949C20.6399 40.5948 20.8828 40.5637 21.3302 40.436C22.2383 40.1767 22.9826 39.5473 23.4649 38.6305C23.6349 38.3076 23.8041 37.7825 23.882 37.3358C23.9485 36.9551 23.9462 36.171 23.8775 35.7655C23.8102 35.3687 23.6222 34.7747 23.4642 34.4592C23.1889 33.9097 22.7294 33.3514 22.2654 33.0028C21.8496 32.6903 21.186 32.4075 20.616 32.2998C20.4071 32.2603 19.4257 32.2253 19.2727 32.2519ZM40.1367 32.2714C38.1255 32.5283 36.6765 34.2684 36.6732 36.4309C36.6707 38.0585 37.492 39.4266 38.8861 40.117C39.5117 40.4268 40.0805 40.5586 40.9066 40.5851C41.5704 40.6064 41.8881 40.5742 42.3611 40.4378C43.3186 40.1617 44.1174 39.4546 44.5754 38.4776C44.9236 37.7349 45.0588 36.7464 44.9305 35.8823C44.7077 34.3827 43.8557 33.1755 42.616 32.6029C41.9394 32.2905 40.986 32.163 40.1367 32.2714ZM20.2175 34.7315C20.6416 34.8314 20.9468 35.0393 21.1789 35.3862C21.5705 35.9715 21.6203 36.7102 21.3099 37.3301C21.005 37.939 20.4275 38.2249 19.6601 38.1468C18.6477 38.0436 17.9962 37.2966 18.0598 36.3119C18.11 35.5342 18.5757 34.932 19.2722 34.744C19.546 34.6701 19.9352 34.6649 20.2175 34.7315ZM41.276 34.733C41.5583 34.7993 41.9116 35.0086 42.0903 35.2155C42.2684 35.4215 42.45 35.7805 42.5014 36.0281C42.5605 36.3128 42.5287 36.8956 42.4408 37.1362C42.2744 37.592 41.9317 37.9316 41.4862 38.0822C41.2131 38.1745 40.6707 38.1807 40.3703 38.0949C39.4641 37.8363 38.9584 37.0603 39.0921 36.1334C39.2416 35.0973 40.2027 34.4811 41.276 34.733Z" fill="black"/>
        <path d="M29.2476 0.558594C44.9944 0.55875 57.7593 13.3244 57.7593 29.0713C57.7591 44.818 44.9943 57.5829 29.2476 57.583C13.5007 57.583 0.73502 44.8181 0.734863 29.0713C0.734863 13.3243 13.5006 0.558594 29.2476 0.558594ZM29.2466 3.36426C15.0494 3.36436 3.54063 14.8732 3.54053 29.0703C3.54053 43.2675 15.0494 54.7772 29.2466 54.7773C43.4439 54.7773 54.9536 43.2676 54.9536 29.0703C54.9535 14.8731 43.4438 3.36426 29.2466 3.36426Z" fill="black"/>
    </g>
    <defs>
        <clipPath id="clip0_38_675">
            <rect width="57.0248" height="57.0248" fill="white" transform="translate(0.735596 0.558594)"/>
        </clipPath>
    </defs>
</svg>
