<svg width="37" height="45" viewBox="0 0 37 45" fill="none" xmlns="http://www.w3.org/2000/svg">
    <g clip-path="url(#clip0_37_90)">
        <path d="M18.6506 0.623535C28.7855 0.623535 37.002 8.83933 37.0022 18.9741C37.0022 23.9425 35.0266 28.4492 31.8196 31.7534H31.8206L31.7639 31.8091C31.6931 31.8815 31.6221 31.9537 31.55 32.0249L18.6506 45.021L5.72583 32.0005C5.6809 31.9559 5.63651 31.9108 5.59204 31.8657L5.48071 31.7534H5.48267C2.27558 28.4492 0.300049 23.9425 0.300049 18.9741C0.300282 8.83948 8.51599 0.623768 18.6506 0.623535ZM19.176 24.2505C19.1763 24.4177 19.3586 26.5103 19.3743 26.5259C19.4142 26.5523 28.2944 26.7368 28.3499 26.7124C28.371 26.6913 28.5866 24.3649 28.5696 24.3413C28.5073 24.3288 20.1146 24.1479 19.595 24.1479H19.176V24.2505ZM9.30786 11.8745C9.05688 11.9042 8.78772 11.9731 8.76099 12.0142C8.7428 12.0435 8.84648 15.9735 8.86743 16.0503C8.87412 16.0732 9.20779 16.22 9.60864 16.3765C10.7753 16.8318 13.6325 17.9727 13.6584 17.9937C13.6673 18.0026 12.7542 18.9435 11.6292 20.0835C10.5088 21.2187 9.59079 22.1643 9.58325 22.1919C9.58325 22.2483 10.0915 22.7184 10.3596 22.9097C10.8426 23.2542 11.4633 23.4868 11.8997 23.4868C12.1586 23.4867 12.5432 23.3916 12.7883 23.2671C13.0527 23.1327 14.7904 21.8845 17.1555 20.1304L17.7981 19.6538L18.0012 19.73C18.1135 19.7722 18.5932 19.9534 19.0676 20.1333C20.7762 20.7811 21.8935 21.0259 23.1477 21.0259C23.9589 21.0259 24.4938 20.8952 24.7786 20.6284C25.1717 20.26 25.0091 19.6301 24.3098 18.814C23.7174 18.1228 22.4551 17.2426 21.4553 16.8237C20.3091 16.3436 17.8273 15.6395 13.5901 14.5913C12.6096 14.3487 11.7802 14.1421 11.7473 14.1323C11.7096 14.1201 11.5948 13.8794 11.4397 13.4868C11.1468 12.7454 10.9484 12.4264 10.6311 12.187C10.289 11.929 9.80888 11.8152 9.30786 11.8745ZM19.1868 21.0366C19.1315 21.0238 19.0971 21.0376 19.0813 21.0786C19.0281 21.2173 19.0919 21.6795 19.1926 21.8853C19.5735 22.6636 20.8325 22.8033 21.303 22.1196C21.4058 21.9699 21.5576 21.5896 21.5256 21.562C21.518 21.5554 21.0074 21.439 20.3909 21.3032C19.7742 21.1675 19.2321 21.0473 19.1868 21.0366ZM15.1711 9.1958C14.878 9.19753 14.6039 9.20999 14.5627 9.22314L14.4885 9.24658L14.6292 11.6528C14.7068 12.9762 14.7736 14.0618 14.7776 14.0649C14.8019 14.0791 18.6084 14.6609 18.6174 14.6519C18.6214 14.6407 18.553 14.3337 18.4641 13.9653C18.3743 13.5931 18.1578 12.6777 17.9836 11.9312C17.6172 10.3606 17.563 10.2179 17.1956 9.8501C16.7308 9.38491 16.1293 9.1901 15.1711 9.1958Z" fill="black"/>
    </g>
    <defs>
        <clipPath id="clip0_37_90">
            <rect width="36.6934" height="44.3598" fill="white" transform="translate(0.306641 0.642334)"/>
        </clipPath>
    </defs>
</svg>
