<svg width="37" height="37" viewBox="0 0 37 37" fill="none" xmlns="http://www.w3.org/2000/svg">
    <g clip-path="url(#clip0_37_141)">
        <path fill-rule="evenodd" clip-rule="evenodd" d="M26.2448 8.35662C25.0991 8.61303 23.6665 9.55302 22.3196 10.9323C21.7453 11.5203 20.8763 12.6115 20.0627 13.7663C19.9787 13.8855 19.8776 13.9829 19.8379 13.9827C19.7567 13.9823 16.0226 13.2364 14.4502 12.9064C13.5347 12.7143 13.3595 12.6909 12.8305 12.6898C12.1683 12.6884 11.8361 12.756 11.3712 12.9866C10.5143 13.4115 9.89519 14.2582 9.63932 15.3551C9.5837 15.5934 9.58502 15.6222 9.65273 15.6489C9.69402 15.6651 11.3499 16.2337 13.3324 16.9124C15.3149 17.5911 16.9527 18.1607 16.9721 18.1781C17.0021 18.205 15.0367 21.207 14.8897 21.359C14.8503 21.3997 14.7081 21.3979 14.2905 21.3516C13.2315 21.2342 12.2427 21.1851 11.935 21.2346C11.2817 21.3398 10.7002 21.8057 10.3484 22.5057C10.14 22.9203 9.9583 23.4776 10.0192 23.5152C10.0425 23.5296 11.0484 23.8186 12.2545 24.1573L14.4474 24.7731L15.715 26.8814C16.8092 28.7016 16.995 28.9865 17.0738 28.9658C17.124 28.9526 17.3117 28.8713 17.491 28.785C18.5433 28.2786 18.9597 27.2643 18.6509 25.9593C18.5148 25.3842 18.2768 24.6357 18.036 24.0251L17.8308 23.5053L18.0683 23.2452C18.1989 23.1022 18.8505 22.4019 19.5163 21.6891C22.5991 18.389 24.5212 16.2592 25.5241 15.0323C26.5468 13.7812 27.3375 12.124 27.6109 10.6588C27.7058 10.1498 27.7034 9.43408 27.6055 9.08505C27.5108 8.74771 27.2467 8.45092 26.9749 8.37624C26.7949 8.32678 26.4227 8.31679 26.2448 8.35662ZM22.8033 20.3665L21.2082 22.2787L22.8289 24.8262C23.7203 26.2273 24.4678 27.3925 24.4901 27.4154C24.5435 27.4705 24.9335 27.2094 25.3817 26.8185C26.053 26.233 26.5876 25.4218 26.7445 24.7503C26.8455 24.3183 26.8355 23.6585 26.7219 23.2485C26.666 23.0467 26.2535 22.1434 25.691 20.991C25.1753 19.9345 24.6886 18.9323 24.6094 18.7639C24.5302 18.5956 24.4503 18.457 24.4318 18.456C24.4134 18.455 23.6805 19.3147 22.8033 20.3665Z" fill="black"/>
        <path d="M18.6396 0.30249C28.7722 0.30249 36.9863 8.51658 36.9863 18.6492C36.9863 28.7818 28.7722 36.9958 18.6396 36.9958C8.50706 36.9958 0.292969 28.7818 0.292969 18.6492C0.292969 8.51658 8.50706 0.30249 18.6396 0.30249ZM18.6396 2.10718C9.50422 2.10718 2.09766 9.51374 2.09766 18.6492C2.09792 27.7844 9.50438 35.1902 18.6396 35.1902C27.7747 35.1899 35.1804 27.7842 35.1807 18.6492C35.1807 9.5139 27.7749 2.10744 18.6396 2.10718Z" fill="black"/>
    </g>
    <defs>
        <clipPath id="clip0_37_141">
            <rect width="36.6934" height="36.6934" fill="white" transform="translate(0.292969 0.302734)"/>
        </clipPath>
    </defs>
</svg>
