<svg width="45" height="55" viewBox="0 0 45 55" fill="none" xmlns="http://www.w3.org/2000/svg">
    <g clip-path="url(#clip0_38_922)">
        <path d="M22.6772 0.357422C34.9326 0.357457 44.8677 10.2925 44.8677 22.5479C44.8677 28.5558 42.4782 34.0045 38.6001 38H38.603L38.4399 38.1631C38.4028 38.2005 38.366 38.2382 38.3286 38.2754L22.6782 54.043L7.08936 38.3398C6.99811 38.2498 6.90853 38.158 6.81885 38.0664L6.75244 38H6.75342C2.87552 34.0045 0.486834 28.5556 0.486816 22.5479C0.486816 10.2925 10.4218 0.357422 22.6772 0.357422ZM21.4399 28.3135C21.4115 28.3163 21.3356 28.3227 21.271 28.3271C21.2062 28.3316 20.3765 28.3488 19.4282 28.3662C18.48 28.3836 17.147 28.4112 16.4663 28.4268C15.7854 28.4424 14.5788 28.4687 13.7847 28.4854C11.3748 28.5359 9.57936 28.5783 9.56396 28.585C9.55291 28.5958 9.80987 31.607 9.82275 31.6172C9.83173 31.6225 10.2614 31.6167 10.7788 31.6045C11.2977 31.5922 12.3986 31.5682 13.2251 31.5508C14.0518 31.5334 15.2987 31.5048 15.9956 31.4883C17.641 31.4493 21.1066 31.3721 21.187 31.3721C21.2439 31.372 21.2507 31.3499 21.269 31.1143C21.2801 30.9725 21.3345 30.3126 21.3901 29.6484C21.5094 28.226 21.5063 28.3069 21.4399 28.3135ZM33.7339 13.25C32.4574 13.3228 30.6203 13.9011 29.2544 14.6602C28.9906 14.8067 27.9359 15.4458 27.4614 15.7461C26.1229 16.5933 22.2327 19.2292 19.4058 21.2041C19.0384 21.4607 18.7184 21.6699 18.6948 21.6699C18.6712 21.6699 18.3488 21.5703 17.978 21.4482C17.6076 21.3262 17.1982 21.2 17.0679 21.167C16.7612 21.0895 16.1321 21.0603 15.8276 21.1094C15.2582 21.2013 14.7648 21.4597 14.3296 21.8945C14.1504 22.0736 13.8711 22.4468 13.8696 22.5088C13.8696 22.5278 14.1315 22.7614 14.4517 23.0273C14.7718 23.2933 15.7278 24.0874 16.5757 24.792C17.4236 25.4966 18.1354 26.077 18.1577 26.082C18.1801 26.087 18.355 26.007 18.5464 25.9033C18.738 25.7995 19.054 25.6311 19.2485 25.5293C19.443 25.4275 19.6423 25.3209 19.6909 25.293C19.7401 25.2647 19.9252 25.1648 20.103 25.0713C20.2815 24.9775 20.8053 24.6997 21.2671 24.4531C22.1042 24.0061 24.1629 22.9658 24.1987 22.9717C24.2029 22.9767 24.2292 23.2325 24.2563 23.54C24.2835 23.8478 24.3506 24.6042 24.4058 25.2197C24.4609 25.8354 24.5608 26.9484 24.6274 27.6934C24.8124 29.7619 24.8564 30.2144 24.8726 30.2305C24.9 30.2558 25.3375 30.1212 25.7173 29.9707C27.0945 29.4247 28.0728 28.5329 28.4614 27.4688C28.6354 26.9924 28.6581 26.8288 28.7817 25.1895C28.9561 22.877 29.0116 22.1193 29.0649 21.2871C29.0915 20.8743 29.1234 20.51 29.1362 20.4775C29.1505 20.4415 29.2957 20.3508 29.5093 20.2441C29.8568 20.0704 31.0322 19.4416 31.5386 19.1582C33.2418 18.2052 34.7655 16.7853 35.4546 15.5107C35.7154 15.0282 35.8534 14.5255 35.813 14.2021C35.7861 13.9882 35.6437 13.7123 35.5024 13.6006C35.1493 13.3211 34.5552 13.2032 33.7339 13.25ZM19.7935 13.0293C19.7365 13.0244 19.5622 13.0313 19.4058 13.0439C18.5559 13.1128 17.6931 13.5129 16.9565 14.1797C16.7291 14.3856 16.3468 14.8109 16.3462 14.8584C16.3489 14.8799 16.6287 15.1055 16.9712 15.3613C17.3157 15.6186 18.364 16.4014 19.3003 17.1006L21.0024 18.3721L21.9819 17.8311C22.5208 17.5339 23.4993 16.9958 24.1558 16.6348C24.8122 16.2738 25.4864 15.9023 25.6538 15.8096L25.9575 15.6406L25.8286 15.5654C25.584 15.4221 22.6252 13.9617 21.6323 13.4941C21.083 13.2355 20.5665 13.0841 20.1323 13.0547C20.0027 13.0459 19.8502 13.0342 19.7935 13.0293Z" fill="black"/>
    </g>
    <defs>
        <clipPath id="clip0_38_922">
            <rect width="44.3702" height="53.6407" fill="white" transform="translate(0.490723 0.380859)"/>
        </clipPath>
    </defs>
</svg>

