<svg width="58" height="58" viewBox="0 0 58 58" fill="none" xmlns="http://www.w3.org/2000/svg">
    <g clip-path="url(#clip0_38_695)">
        <path d="M29.3521 0.558594C45.0988 0.558773 57.8638 13.3245 57.8638 29.0713C57.8636 44.818 45.0987 57.5828 29.3521 57.583C13.6052 57.583 0.839535 44.8181 0.839355 29.0713C0.839355 13.3243 13.6051 0.558594 29.3521 0.558594ZM29.3511 3.36426C15.154 3.36444 3.6451 14.8732 3.64502 29.0703C3.64502 43.2675 15.154 54.7772 29.3511 54.7773C43.5483 54.7773 55.0581 43.2676 55.0581 29.0703C55.058 14.8731 43.5483 3.36426 29.3511 3.36426Z" fill="black"/>
        <path fill-rule="evenodd" clip-rule="evenodd" d="M31.8855 25.2931C32.6571 25.2815 33.4281 25.3372 34.19 25.4595C36.8024 25.8867 38.5853 26.8653 39.7152 28.0798C38.6027 27.9631 37.006 27.983 34.7487 28.204L36.2685 31.1373L41.2647 31.2391C41.595 33.4745 40.5893 35.6601 38.9851 36.4872L29.1713 36.142L26.2635 32.2351L15.9282 30.1711L13.2115 33.2062L11.3789 32.5182L12.9135 27.9656L11.0461 23.6166L13.3903 23.1199L16.5167 27.377L24.2297 27.7619C25.002 27.0888 26.3404 26.3735 27.9968 25.8867L28.6077 21.3639L11.3466 21.6917L11.1951 20.3009L28.8262 19.7073L28.928 18.9621L31.143 18.7908L31.2374 19.6327L47.3934 19.0888L47.6541 21.0087L31.4336 21.3093L31.8855 25.2931ZM43.8796 35.6278L44.6792 36.373C44.6792 36.373 43.671 39.264 40.1746 39.264C38.3867 39.264 23.44 39.3484 23.44 39.3484L23.219 37.8905C23.219 37.8905 38.1408 37.3689 39.9312 37.3689C41.7217 37.3689 43.8796 35.6278 43.8796 35.6278Z" fill="black"/>
    </g>
    <defs>
        <clipPath id="clip0_38_695">
            <rect width="57.0247" height="57.0247" fill="white" transform="translate(0.837158 0.558594)"/>
        </clipPath>
    </defs>
</svg>
