<svg width="37" height="45" viewBox="0 0 37 45" fill="none" xmlns="http://www.w3.org/2000/svg">
    <g clip-path="url(#clip0_37_156)">
        <path d="M18.6492 0.280273C28.7905 0.280273 37.0122 8.50132 37.0125 18.6426C37.0125 23.614 35.0358 28.1234 31.8269 31.4297H31.8279L31.7615 31.4961C31.7004 31.5584 31.6389 31.6202 31.5769 31.6816L18.6501 44.7061L5.74976 31.71C2.37753 28.3806 0.286865 23.7558 0.286865 18.6426C0.2871 8.50146 8.50805 0.280508 18.6492 0.280273ZM11.9431 17.5967L12.0642 24.834L10.3474 24.8711V26.8213H27.2351L27.3298 24.5156L25.4207 24.5566L25.5984 17.501L18.7126 12.4658L11.9431 17.5967ZM23.6062 19.2676L23.4675 24.5938L20.5671 24.6543L20.4314 19.2354L23.6062 19.2676ZM18.5232 19.2354V21.5693L13.8933 21.6777L13.8025 19.1982L18.5232 19.2354ZM9.14233 15.9844L10.2869 17.4121L18.6453 11.0137L27.0984 17.3408L28.1824 15.917L25.4792 13.7598L25.5505 9.23438L22.5642 9.11914L22.4363 11.3281L18.6404 8.29395L9.14233 15.9844Z" fill="black"/>
    </g>
    <defs>
        <clipPath id="clip0_37_156">
            <rect width="36.7168" height="44.3882" fill="white" transform="translate(0.292969 0.296875)"/>
        </clipPath>
    </defs>
</svg>
