<svg width="45" height="55" viewBox="0 0 45 55" fill="none" xmlns="http://www.w3.org/2000/svg">
<g clip-path="url(#clip0_38_928)">
<path d="M22.4155 0.357422C34.6709 0.357457 44.606 10.2925 44.606 22.5479C44.6059 28.5558 42.2165 34.0045 38.3384 38H38.3413L38.1782 38.1631C38.1411 38.2005 38.1043 38.2382 38.0669 38.2754L22.4165 54.043L6.82764 38.3398C6.73639 38.2498 6.64681 38.158 6.55713 38.0664L6.49072 38H6.4917C2.6138 34.0045 0.225115 28.5556 0.225098 22.5479C0.225098 10.2925 10.1601 0.357422 22.4155 0.357422ZM17.2925 16.9551L17.1646 21.4023L14.1948 19.666L13.7515 20.6182L17.0962 24.2197L16.854 32.2842L19.936 32.4316L19.5308 26.2158L23.6489 22.0977L23.0581 20.8477L19.3716 23.498L18.9009 16.6572L17.2925 16.9551ZM25.2866 32.3008H29.5601L29.3462 30.1816L25.5024 29.9688L25.2866 32.3008ZM22.7427 16.7617C23.0721 12.9198 20.7374 10.7559 17.8306 10.7559C14.6378 10.7559 12.3919 12.9827 12.8618 16.2578C7.66863 17.9756 7.98112 26.7604 15.7104 26.7607V25.2637C12.5059 25.2635 10.9897 23.4154 10.9897 21.6689C10.9898 20.3535 11.5741 17.585 14.7036 17.585C14.5486 16.7614 13.6664 12.4983 17.8423 12.498C22.176 12.498 21.1519 17.7839 20.9146 18.4912C22.884 18.0699 25.8803 19.2566 25.8804 22.8682C25.8804 25.8574 24.2306 27.6236 20.8394 27.7715L20.7759 29.1475L35.4927 28.8398L31.0835 23.5098L33.7749 22.5029L30.4731 18.6699L32.3091 17.9092L26.8608 10.7559L22.7427 16.7617Z" fill="black"/>
</g>
<defs>
<clipPath id="clip0_38_928">
<rect width="44.3702" height="53.6407" fill="white" transform="translate(0.230957 0.380859)"/>
</clipPath>
</defs>
</svg>
