<svg width="46" height="55" viewBox="0 0 46 55" fill="none" xmlns="http://www.w3.org/2000/svg">
    <g clip-path="url(#clip0_38_952)">
        <path d="M22.8965 0.357422C35.1519 0.357457 45.0869 10.2925 45.0869 22.5479C45.0869 28.5558 42.6975 34.0045 38.8193 38H38.8223L38.6592 38.1631C38.6221 38.2005 38.5852 38.2382 38.5479 38.2754L22.8975 54.043L7.30859 38.3398C7.21734 38.2498 7.12777 38.158 7.03809 38.0664L6.97168 38H6.97266C3.09476 34.0045 0.706072 28.5556 0.706055 22.5479C0.706055 10.2925 10.6411 0.357422 22.8965 0.357422ZM27.3711 12.9502C25.4392 12.0401 20.5744 11.8983 18.7256 13.0781L18.0879 15.3438C16.2835 15.6108 14.4661 15.8804 13.6025 16.0127C11.7902 16.2901 10.7575 16.7727 10.8066 18.8467C10.8376 20.5899 11.0646 29.6796 11.0664 29.7529L34.7998 29.5615C34.7998 29.5615 34.9376 20.6449 34.9609 18.8604C34.9843 17.1593 34.1103 16.3815 33.0342 16.2285C32.1992 16.1066 30.187 15.7922 28.1748 15.4707L27.3711 12.9502ZM23.1338 17.3379C29.8756 17.3379 29.8213 27.6426 23.248 27.6426C16.0371 27.6424 16.3638 17.3382 23.1338 17.3379ZM14.4375 19.9521C15.7466 19.9525 15.7387 21.9637 14.458 21.9639C13.0578 21.9639 13.1202 19.9619 14.4375 19.9619V19.9521ZM12.5029 13.9072L12.2432 15.2637L15.9932 15.1025L15.7021 13.874L12.5029 13.9072Z" fill="black"/>
    </g>
    <defs>
        <clipPath id="clip0_38_952">
            <rect width="44.3702" height="53.6407" fill="white" transform="translate(0.711426 0.380859)"/>
        </clipPath>
    </defs>
</svg>
