<svg width="46" height="55" viewBox="0 0 46 55" fill="none" xmlns="http://www.w3.org/2000/svg">
    <g clip-path="url(#clip0_38_940)">
        <path d="M23.1577 0.357422C35.4131 0.357457 45.3481 10.2925 45.3481 22.5479C45.3481 28.5558 42.9587 34.0045 39.0806 38H39.0835L38.9204 38.1631C38.8833 38.2005 38.8464 38.2382 38.8091 38.2754L23.1587 54.043L7.56982 38.3398C7.47857 38.2498 7.389 38.158 7.29932 38.0664L7.23291 38H7.23389C3.35599 34.0045 0.967302 28.5556 0.967285 22.5479C0.967285 10.2925 10.9023 0.357422 23.1577 0.357422ZM25.0581 23.8213V24.6895H25.0513C25.5478 24.7619 26.0007 25.0133 26.3247 25.3965C26.6486 25.7796 26.8211 26.268 26.8101 26.7695C26.8101 27.4075 26.7739 30.2041 26.7739 30.2041L26.1021 30.8906V31.4756C25.9841 33.4641 29.2482 33.8047 29.3667 31.6299L29.311 23.8213H25.0581ZM16.9741 19.7256C16.9741 19.7256 18.842 20.6582 18.8423 21.6006C18.8423 22.543 18.5164 29.449 18.3979 31.4844C18.2795 33.5191 21.9188 33.7444 21.8247 31.6396C21.7305 29.5348 21.4331 22.5116 21.4331 21.5908H21.4282C21.4286 20.6799 23.2144 19.8652 23.2144 19.8652L22.6899 10.9873L21.6118 10.9531L21.7036 17.2051L20.7876 17.1885L20.6841 10.9043L19.7173 10.8398L19.4468 17.1562L18.5044 17.1396L18.6567 10.8564L17.7524 10.8271L16.9741 19.7256ZM29.2075 10.7041C25.6479 10.7041 25.121 15.4116 25.0581 22.7217H29.2944L29.2075 10.7041Z" fill="black"/>
    </g>
    <defs>
        <clipPath id="clip0_38_940">
            <rect width="44.3702" height="53.6407" fill="white" transform="translate(0.971191 0.380859)"/>
        </clipPath>
    </defs>
</svg>
