<svg width="45" height="55" viewBox="0 0 45 55" fill="none" xmlns="http://www.w3.org/2000/svg">
    <g clip-path="url(#clip0_38_946)">
        <path d="M22.5264 0.357422C34.7817 0.357457 44.7168 10.2925 44.7168 22.5479C44.7168 28.5558 42.3274 34.0045 38.4492 38H38.4521L38.2891 38.1631C38.252 38.2005 38.2151 38.2382 38.1777 38.2754L22.5273 54.043L6.93848 38.3398C6.84723 38.2498 6.75765 38.158 6.66797 38.0664L6.60156 38H6.60254C2.72464 34.0045 0.335955 28.5556 0.335938 22.5479C0.335938 10.2925 10.271 0.357422 22.5264 0.357422ZM13.6787 20.9902L13.4346 28.6191L11.2686 28.666L11.751 31.543L34.0576 31.2998V28.1836L32.0576 28.2246L31.4189 20.9883L32.4668 19.5264L26.7627 19.4746L28.0615 20.9902L27.8398 28.3145L24.8398 28.3779L24.2217 20.9902L25.4082 19.4629L19.5088 19.4111L20.8633 20.9902L20.4102 28.4727L17.7305 28.5293L17.0234 20.9902L18.0176 19.3994L12.2432 19.3477L13.6787 20.9902ZM11.0244 16.9141L11.2686 18.3516L33.5703 18.1123L33.8145 16.4336L22.0625 10.4375L11.0244 16.9141ZM22.1602 13.3154C24.2066 13.3156 24.2579 16.4331 22.3018 16.4336C19.9894 16.4336 20.1597 13.3154 22.1602 13.3154Z" fill="black"/>
    </g>
    <defs>
        <clipPath id="clip0_38_946">
            <rect width="44.3702" height="53.6407" fill="white" transform="translate(0.341309 0.380859)"/>
        </clipPath>
    </defs>
</svg>
