<svg width="58" height="58" viewBox="0 0 58 58" fill="none" xmlns="http://www.w3.org/2000/svg">
    <g clip-path="url(#clip0_38_685)">
        <path d="M29.2991 0.558594C45.0459 0.558773 57.8108 13.3245 57.8108 29.0713C57.8106 44.818 45.0458 57.5828 29.2991 57.583C13.5522 57.583 0.786556 44.8181 0.786377 29.0713C0.786377 13.3243 13.5521 0.558594 29.2991 0.558594ZM29.2981 3.36426C15.101 3.36436 3.59212 14.8732 3.59204 29.0703C3.59204 43.2675 15.1009 54.7772 29.2981 54.7773C43.4954 54.7773 55.0051 43.2676 55.0051 29.0703C55.005 14.8731 43.4953 3.36426 29.2981 3.36426Z" fill="black"/>
        <path fill-rule="evenodd" clip-rule="evenodd" d="M36.354 17.6872L34.6378 17.707V19.196V20.685H29.7147H24.7915V20.9988C24.7915 21.4403 25.2093 30.9682 25.2295 30.9884C25.2387 30.9976 26.8054 30.9739 28.7112 30.9357C30.617 30.8975 34.0641 30.8603 36.3714 30.8528C40.5454 30.8395 40.5692 30.8401 41.1212 30.9969C43.3089 31.6183 44.7622 33.1968 45.2161 35.4447C45.4475 36.591 45.2612 38.0636 44.7588 39.0585L44.5515 39.4689H46.9448C48.2611 39.4689 49.338 39.4531 49.338 39.4339C49.338 39.4147 48.5732 37.8703 47.6385 36.0018C46.7037 34.1334 45.7966 32.288 45.6225 31.9009L45.3061 31.1972L45.4131 30.6024C45.7614 28.6666 45.7471 26.1825 45.3771 24.324C45.1093 22.979 44.5478 21.5858 43.9895 20.8813L43.7791 20.6157H41.3927H39.0063V19.1255V17.6353L38.5382 17.6513C38.2809 17.6601 37.298 17.6763 36.354 17.6872ZM10.8236 17.7757C10.6351 17.8085 10.3569 17.923 10.2053 18.0299C9.66312 18.4123 9.26316 19.4556 9.26046 20.4944L9.25928 20.9623H10.4381H11.6168V26.8192V32.6762H10.5421H9.4673V34.0971V35.518H11.7467H14.026L14.0716 35.2333C14.1419 34.7934 14.5041 33.9147 14.81 33.4415C15.5605 32.2809 16.5845 31.5545 17.9536 31.2118C18.4424 31.0894 18.8192 31.0658 20.8248 31.0324L23.1335 30.9937L23.112 25.4755C23.0905 19.9585 23.0905 19.9572 22.934 19.4932C22.7458 18.9354 22.2472 18.3488 21.7613 18.1137C21.017 17.7536 21.0069 17.7529 15.916 17.7337C13.3036 17.7239 11.012 17.7428 10.8236 17.7757ZM20.6829 20.9239C20.7133 20.9502 20.8454 24.7221 20.8169 24.7504C20.7758 24.7916 14.2584 25.3592 14.2268 25.3244C14.2118 25.3079 14.1481 24.499 14.0853 23.5269C14.0225 22.5547 13.9518 21.5453 13.9283 21.2835L13.8856 20.8076L17.2756 20.8584C19.1402 20.8862 20.6735 20.9158 20.6829 20.9239ZM46.5656 24.064C46.5682 24.7385 46.8334 29.5025 46.8704 29.5396C46.8916 29.5607 47.2907 29.4872 47.7574 29.3762L48.6058 29.1744L48.5841 26.5759C48.5721 25.1467 48.5481 23.9629 48.5308 23.9452C48.4966 23.9103 47.0677 23.7437 46.7551 23.7382C46.5732 23.7349 46.5645 23.75 46.5656 24.064ZM18.7722 32.4007C17.2044 32.8112 16.1686 34.0395 15.9123 35.7919C15.5989 37.9343 16.8915 39.9276 18.9013 40.4012C19.4675 40.5346 20.522 40.5362 21.1511 40.4047C21.8478 40.259 22.6857 39.8246 23.1486 39.369C23.5001 39.0234 23.9444 38.391 23.8807 38.3273C23.8662 38.3129 22.5909 38.3253 21.0467 38.3549C19.5024 38.3845 18.2191 38.398 18.195 38.3851C18.1397 38.3556 17.975 37.2489 18.0193 37.2047C18.0652 37.1587 39.548 36.5216 39.5914 36.5649C39.6109 36.5845 39.5883 36.9101 39.5413 37.2885L39.4555 37.9765L39.1789 38.0256C39.0267 38.0525 38.208 38.0764 37.3595 38.0786C36.2626 38.0814 35.8166 38.1052 35.8166 38.1608C35.8166 38.3464 36.291 39.0499 36.6637 39.4169C37.4036 40.1458 38.3738 40.5061 39.5957 40.5061C41.7688 40.5061 43.422 39.2744 43.8252 37.3548C44.3124 35.0349 42.8961 32.8391 40.6011 32.3562C39.5899 32.1434 38.3706 32.2909 37.5121 32.7299C36.8366 33.0753 36.037 33.9554 35.8116 34.6015C35.7429 34.7985 35.723 34.8062 35.172 34.8491C34.8591 34.8735 34.4411 34.8936 34.243 34.8938L33.8827 34.8942L33.6193 34.3917C33.0952 33.3914 32.0564 32.6284 30.8552 32.3612C30.1089 32.1953 28.8723 32.247 28.2932 32.4685C27.1539 32.9041 26.2088 33.8792 25.8981 34.9393C25.7983 35.2799 25.7089 35.3101 24.7998 35.3101H24.2014L24.042 34.8992C23.5399 33.6046 22.4195 32.6489 21.069 32.3628C20.4035 32.2218 19.3912 32.2385 18.7722 32.4007ZM28.5905 38.2194C27.2667 38.2429 26.1614 38.2844 26.1343 38.3114C26.1073 38.3385 26.2341 38.5788 26.4164 38.8454C26.9097 39.5671 27.5334 40.0228 28.4666 40.343C28.7737 40.4484 29.0437 40.4734 29.8534 40.4713C30.7691 40.4689 30.9082 40.4515 31.4135 40.2763C32.4073 39.9317 33.188 39.3024 33.6308 38.4891L33.8144 38.1519L32.4059 38.1643C31.6313 38.171 29.9144 38.1959 28.5905 38.2194Z" fill="black"/>
    </g>
    <defs>
        <clipPath id="clip0_38_685">
            <rect width="57.0247" height="57.0247" fill="white" transform="translate(0.786377 0.558594)"/>
        </clipPath>
    </defs>
</svg>
