<svg width="58" height="58" viewBox="0 0 58 58" fill="none" xmlns="http://www.w3.org/2000/svg">
    <g clip-path="url(#clip0_38_690)">
        <path d="M29.3264 0.558594C45.0732 0.558773 57.8381 13.3245 57.8381 29.0713C57.838 44.818 45.0731 57.5828 29.3264 57.583C13.5796 57.583 0.8139 44.8181 0.813721 29.0713C0.813721 13.3243 13.5795 0.558594 29.3264 0.558594ZM29.3254 3.36426C15.1283 3.36434 3.61946 14.8732 3.61938 29.0703C3.61938 43.2675 15.1282 54.7773 29.3254 54.7773C43.5227 54.7773 55.0325 43.2676 55.0325 29.0703C55.0324 14.8731 43.5227 3.36426 29.3254 3.36426Z" fill="black"/>
        <path fill-rule="evenodd" clip-rule="evenodd" d="M22.0996 21.4917C19.5219 21.632 17.3946 21.7657 17.3721 21.7887C17.3496 21.8117 17.3108 22.8909 17.2859 24.1868L17.2405 26.543L17.7441 26.5099C18.021 26.4917 21.2955 26.3623 25.0208 26.2223C28.7461 26.0823 31.8749 25.9608 31.9735 25.9522C32.1408 25.9377 32.0127 25.7772 30.0796 23.5798L28.0062 21.2229L27.3963 21.2298C27.0608 21.2335 24.6773 21.3514 22.0996 21.4917ZM42.2679 24.3338C38.6006 24.6621 35.5787 24.9549 35.5528 24.9845C35.5268 25.0142 35.1953 25.5507 34.8161 26.1768C34.4368 26.8029 34.0955 27.3344 34.0576 27.3577C34.0198 27.3811 28.3994 27.7554 21.5679 28.1895C14.7364 28.6235 9.13469 28.991 9.11966 29.006C9.08865 29.037 10.4474 36.7618 10.4926 36.8112C10.515 36.8357 41.6508 36.9371 41.6897 36.9128C41.6959 36.9089 49.3493 24.0733 49.5254 23.7713C49.5751 23.6861 49.0437 23.7273 42.2679 24.3338ZM27.9087 30.4646C28.2884 30.6368 28.4055 30.7498 28.5992 31.1313C28.7175 31.3646 28.7618 31.5555 28.7646 31.8432C28.771 32.5268 28.4862 33.0098 27.9252 33.2664C27.097 33.6453 26.0469 33.212 25.8003 32.3894C25.637 31.8445 25.7754 31.1763 26.1323 30.788C26.5247 30.361 27.349 30.211 27.9087 30.4646ZM33.688 30.3946C33.993 30.4794 34.3681 30.8007 34.5391 31.1235C34.7384 31.4999 34.7384 32.2424 34.5391 32.6188C34.1482 33.3569 33.2455 33.61 32.4229 33.2121C31.6557 32.8409 31.4154 31.7502 31.9298 30.9734C32.2816 30.4421 33.0039 30.2043 33.688 30.3946ZM39.9525 30.5586C40.8603 31.1194 40.8587 32.6239 39.9499 33.1854C39.6728 33.3566 39.5807 33.3786 39.1502 33.3774C38.7785 33.3762 38.6031 33.3435 38.4069 33.2388C37.8779 32.9567 37.6041 32.5069 37.6047 31.9213C37.6052 31.3915 37.7114 31.1163 38.043 30.7857C38.4035 30.4261 38.655 30.3333 39.217 30.3523C39.5615 30.364 39.7008 30.403 39.9525 30.5586Z" fill="black"/>
    </g>
    <defs>
        <clipPath id="clip0_38_690">
            <rect width="57.0247" height="57.0247" fill="white" transform="translate(0.811768 0.558594)"/>
        </clipPath>
    </defs>
</svg>
